Coordinates
version=1
nRows=8
nColumns=40
inDegrees=yes

Units are S.I. units (second, meters, Newtons, ...)
If the header above contains a line with 'inDegrees', this indicates whether rotational values are in degrees (yes) or radians (no).

endheader
time	pelvis_tilt	pelvis_list	pelvis_rotation	pelvis_tx	pelvis_ty	pelvis_tz	hip_flexion_r	hip_adduction_r	hip_rotation_r	knee_angle_r	knee_angle_r_beta	ankle_angle_r	subtalar_angle_r	mtp_angle_r	hip_flexion_l	hip_adduction_l	hip_rotation_l	knee_angle_l	knee_angle_l_beta	ankle_angle_l	subtalar_angle_l	mtp_angle_l	lumbar_extension	lumbar_bending	lumbar_rotation	arm_flex_r	arm_add_r	arm_rot_r	elbow_flex_r	pro_sup_r	wrist_flex_r	wrist_dev_r	arm_flex_l	arm_add_l	arm_rot_l	elbow_flex_l	pro_sup_l	wrist_flex_l	wrist_dev_l
      0.45000000	      3.59360739	     -0.12017548	     -2.34137915	     -0.08869128	      0.94701721	      0.28264319	     -0.58617032	      0.68169755	    -14.02161703	     11.34116738	      0.19794071	      2.55930516	      1.02806318	      0.00000000	     12.50389111	    -13.64412243	    -17.68046904	     61.87287093	      1.07988532	     -2.88583780	     -9.18050226	      0.00000000	     -4.57836740	      1.63171724	      1.68968714	     43.79986412	    -16.06090209	     43.79986412	     75.46121230	     45.02843903	      0.00000000	      0.00000000	     43.79986412	    -16.06090209	     43.79986412	     75.46121230	     45.02843903	      0.00000000	      0.00000000
      0.45500000	      3.53040165	     -0.08784366	     -2.47115019	     -0.08244382	      0.94715119	      0.28279976	     -1.02135527	      0.62774372	    -14.24355157	     11.22336648	      0.19588470	      2.69035126	      1.19926824	      0.00000000	     13.26527511	    -13.62339045	    -17.97657693	     61.19354533	      1.06802885	     -2.51478748	     -9.11769452	      0.00000000	     -4.47324225	      1.57282246	      1.70844067	     43.80037711	    -16.06015260	     43.80037711	     75.46057428	     45.02832987	      0.00000000	      0.00000000	     43.80037711	    -16.06015260	     43.80037711	     75.46057428	     45.02832987	      0.00000000	      0.00000000
      0.46000000	      3.44936991	     -0.07604715	     -2.61431016	     -0.07632598	      0.94717464	      0.28299467	     -1.39761690	      0.60543044	    -14.40202807	     11.13044958	      0.19426299	      2.79281105	      1.32410657	      0.00000000	     14.08681230	    -13.61170902	    -18.23585513	     60.56334248	      1.05702973	     -2.22838329	     -9.05288814	      0.00000000	     -4.50867043	      1.54249887	      1.71294115	     43.80061596	    -16.05980377	     43.80061596	     75.46027753	     45.02827920	      0.00000000	      0.00000000	     43.80061596	    -16.05980377	     43.80061596	     75.46027753	     45.02827920	      0.00000000	      0.00000000
      0.46500000	      3.69679644	      0.39278634	     -2.79239234	     -0.07003748	      0.94812886	      0.28330042	     -2.34298165	      0.05012668	    -14.46277922	     10.64587669	      0.18580560	      3.25767334	      2.62918135	      0.00000000	     14.20396451	    -12.87640406	    -18.42855421	     59.28763562	      1.03476445	     -1.10179509	     -8.25129486	      0.00000000	     -4.75579020	      0.89447216	      1.94716987	     43.80277311	    -16.05665461	     43.80277311	     75.45760214	     45.02782493	      0.00000000	      0.00000000	     43.80277311	    -16.05665461	     43.80277311	     75.45760214	     45.02782493	      0.00000000	      0.00000000
      0.47000000	      3.60385013	      0.36299847	     -2.91001715	     -0.06383309	      0.94799008	      0.28341528	     -2.70752925	      0.04793160	    -14.66410497	     10.59518860	      0.18492093	      3.35958658	      2.72704354	      0.00000000	     14.96749129	    -12.92381786	    -18.72193280	     58.51195249	      1.02122622	     -0.93491370	     -8.20852178	      0.00000000	     -4.64653655	      0.89880180	      1.93035773	     43.80311921	    -16.05614975	     43.80311921	     75.45717401	     45.02775267	      0.00000000	      0.00000000	     43.80311921	    -16.05614975	     43.80311921	     75.45717401	     45.02775267	      0.00000000	      0.00000000
      0.47500000	      3.80767269	      0.72609721	     -3.09393371	     -0.05767847	      0.94870156	      0.28374601	     -3.48741148	     -0.40049775	    -14.78821725	     10.31802320	      0.18008348	      3.76212903	      3.71979488	      0.00000000	     15.15378359	    -12.33839195	    -18.96854197	     57.20786014	      0.99846552	     -0.30934759	     -7.70257699	      0.00000000	     -4.94700606	      0.37104488	      2.09295131	     43.80533844	    -16.05291436	     43.80533844	     75.45443441	     45.02729302	      0.00000000	      0.00000000	     43.80533844	    -16.05291436	     43.80533844	     75.45443441	     45.02729302	      0.00000000	      0.00000000
      0.48000000	      3.73051957	      0.70156976	     -3.24159379	     -0.05152688	      0.94851819	      0.28394748	     -3.85914494	     -0.41191380	    -14.92629487	     10.27307933	      0.17929906	      3.91414496	      3.94467267	      0.00000000	     15.81925943	    -12.32736305	    -19.20893465	     56.26410822	      0.98199394	     -0.12853267	     -7.61932051	      0.00000000	     -4.87587953	      0.32335938	      2.08628032	     43.80609012	    -16.05181947	     43.80609012	     75.45350921	     45.02713893	      0.00000000	      0.00000000	     43.80609012	    -16.05181947	     43.80609012	     75.45350921	     45.02713893	      0.00000000	      0.00000000
      0.48500000	      3.90662263	      1.04305837	     -3.41830461	     -0.04535926	      0.94901517	      0.28423766	     -4.57083960	     -0.85548057	    -15.09460545	     10.07519669	      0.17584536	      4.23971551	      4.81874521	      0.00000000	     16.00584427	    -11.79574823	    -19.52943600	     54.89045844	      0.95801923	      0.20758195	     -7.24973287	      0.00000000	     -5.10952744	     -0.18132009	      2.23836212	     43.80918136	    -16.04732105	     43.80918136	     75.44971714	     45.02651297	      0.00000000	      0.00000000	     43.80918136	    -16.04732105	     43.80918136	     75.44971714	     45.02651297	      0.00000000	      0.00000000
